<?xml version="1.0" encoding="utf-8"?>
<!-- Generator: Adobe Illustrator 24.1.3, SVG Export Plug-In . SVG Version: 6.00 Build 0)  -->
<svg version="1.1" id="Layer_1" xmlns="http://www.w3.org/2000/svg" xmlns:xlink="http://www.w3.org/1999/xlink" x="0px" y="0px"
	 viewBox="0 0 512 512" style="enable-background:new 0 0 512 512;" xml:space="preserve">
<style type="text/css">
	.st0{fill:#FFFFFF;}
</style>
<g>
	<g>
		<g>
			<path class="st0" d="M469.3,304.2V85.3c0-23.5-19.1-42.7-42.7-42.7h-64v-32C362.7,4.8,357.9,0,352,0s-10.7,4.8-10.7,10.7v32h-192
				v-32c0-5.9-4.8-10.7-10.7-10.7C132.8,0,128,4.8,128,10.7v32H42.7C19.1,42.7,0,61.8,0,85.3v341.3c0,23.5,19.1,42.7,42.7,42.7
				h261.6c21.5,26,54.1,42.7,90.4,42.7c64.7,0,117.3-52.6,117.3-117.3C512,358.3,495.4,325.8,469.3,304.2z M21.3,85.3
				c0-11.8,9.6-21.3,21.3-21.3H128v21.3c-11.8,0-21.3,9.6-21.3,21.3S116.2,128,128,128s21.3-9.6,21.3-21.3V64h192v21.3
				c-11.8,0-21.3,9.6-21.3,21.3s9.6,21.3,21.3,21.3c11.8,0,21.3-9.6,21.3-21.3V64h64c11.8,0,21.3,9.6,21.3,21.3v64H21.3V85.3z
				 M42.7,448c-11.8,0-21.3-9.6-21.3-21.3v-256H448v119.6c-16-8.2-34.1-13-53.3-13c-64.7,0-117.3,52.6-117.3,117.3
				c0,19.2,4.7,37.3,13,53.3H42.7z M394.7,490.7c-52.9,0-96-43.1-96-96s43.1-96,96-96s96,43.1,96,96S447.6,490.7,394.7,490.7z"/>
			<path class="st0" d="M437.3,384h-32v-32c0-5.9-4.8-10.7-10.7-10.7S384,346.1,384,352v32h-32c-5.9,0-10.7,4.8-10.7,10.7
				s4.8,10.7,10.7,10.7h32v32c0,5.9,4.8,10.7,10.7,10.7s10.7-4.8,10.7-10.7v-32h32c5.9,0,10.7-4.8,10.7-10.7S443.2,384,437.3,384z"
				/>
		</g>
	</g>
</g>
</svg>
